<?xml version="1.0" encoding="utf-8"?>
<!-- Generator: Adobe Illustrator 23.0.1, SVG Export Plug-In . SVG Version: 6.00 Build 0)  -->
<svg version="1.1" id="Ebene_1" xmlns="http://www.w3.org/2000/svg" xmlns:xlink="http://www.w3.org/1999/xlink" x="0px" y="0px"
	 viewBox="0 0 22.7 22.7" style="enable-background:new 0 0 22.7 22.7;" xml:space="preserve">
<style type="text/css">
	.st0{fill-rule:evenodd;clip-rule:evenodd;fill:#4A4A4A;}
</style>
<path id="icon-more" class="st0" d="M5.3,9.3c-1.1,0-2,0.9-2,2s0.9,2,2,2s2-0.9,2-2S6.4,9.3,5.3,9.3L5.3,9.3z M17.3,9.3
	c-1.1,0-2,0.9-2,2s0.9,2,2,2s2-0.9,2-2S18.4,9.3,17.3,9.3L17.3,9.3z M11.3,9.3c-1.1,0-2,0.9-2,2s0.9,2,2,2s2-0.9,2-2
	S12.4,9.3,11.3,9.3L11.3,9.3z"/>
</svg>
