<?xml version="1.0" encoding="utf-8"?>
<!-- Generator: Adobe Illustrator 15.1.0, SVG Export Plug-In . SVG Version: 6.00 Build 0)  -->
<!DOCTYPE svg PUBLIC "-//W3C//DTD SVG 1.1//EN" "http://www.w3.org/Graphics/SVG/1.1/DTD/svg11.dtd">
<svg version="1.1" id="icon" xmlns="http://www.w3.org/2000/svg" xmlns:xlink="http://www.w3.org/1999/xlink" x="0px" y="0px"
	 width="114px" height="114px" viewBox="0.5 512.5 114 114" enable-background="new 0.5 512.5 114 114" xml:space="preserve">
<g id="Oval">
	<linearGradient id="SVGID_1_" gradientUnits="userSpaceOnUse" x1="97.8062" y1="529.1963" x2="98.8062" y2="528.1963">
		<stop  offset="0" style="stop-color:#00E1E1"/>
		<stop  offset="1" style="stop-color:#3BF495"/>
	</linearGradient>
	<path fill="url(#SVGID_1_)" d="M57.5,514.5c30.327,0,55,24.673,55,55s-24.673,55-55,55s-55-24.673-55-55S27.173,514.5,57.5,514.5
		 M57.5,512.5c-31.48,0-57,25.52-57,57s25.52,57,57,57s57-25.52,57-57S88.98,512.5,57.5,512.5L57.5,512.5z"/>
</g>
<linearGradient id="Rectangle-4_1_" gradientUnits="userSpaceOnUse" x1="82.4434" y1="518.0156" x2="82.67" y2="517.789" gradientTransform="matrix(1.100034e-14 -179.6491 -89.8246 -5.500169e-15 46578.4023 15395.6992)">
	<stop  offset="0" style="stop-color:#00E1E1"/>
	<stop  offset="1" style="stop-color:#3BF495"/>
</linearGradient>
<polygon id="Rectangle-4" fill="url(#Rectangle-4_1_)" points="70.732,569.5 50.375,589.857 50.375,549.143 "/>
</svg>
