<?xml version="1.0" encoding="utf-8"?>
<!-- Generator: Adobe Illustrator 23.0.1, SVG Export Plug-In . SVG Version: 6.00 Build 0)  -->
<svg version="1.1" id="Ebene_1" xmlns="http://www.w3.org/2000/svg" xmlns:xlink="http://www.w3.org/1999/xlink" x="0px" y="0px"
	 viewBox="0 0 51 51" style="enable-background:new 0 0 51 51;" xml:space="preserve">
<style type="text/css">
	.st0{fill:none;stroke:#F2F2F2;}
	.st1{fill-rule:evenodd;clip-rule:evenodd;fill:#4A4A4A;}
</style>
<circle id="bg" class="st0" cx="25.5" cy="25.5" r="25.5"/>
<path id="love-icon" class="st1" d="M30.2,16c-1.8,0-3.6,0.8-4.7,2.2c-1.1-1.3-2.9-2.2-4.7-2.2c-3.2,0-5.7,2.5-5.7,5.7
	c0,3.9,3.5,7.1,8.9,12l1.5,1.4l1.5-1.4c5.4-4.9,8.9-8.1,8.9-12C35.9,18.5,33.4,16,30.2,16L30.2,16z M25.6,32.2l-0.1,0.1l-0.1-0.1
	c-5-4.5-8.2-7.5-8.2-10.5c0-2.1,1.6-3.6,3.6-3.6c1.6,0,3.2,1,3.7,2.5h1.9c0.5-1.4,2.1-2.5,3.7-2.5c2.1,0,3.6,1.6,3.6,3.6
	C33.8,24.7,30.6,27.7,25.6,32.2L25.6,32.2z"/>
</svg>
