<?xml version="1.0" encoding="utf-8"?>
<!-- Generator: Adobe Illustrator 22.1.0, SVG Export Plug-In . SVG Version: 6.00 Build 0)  -->
<svg version="1.1" xmlns="http://www.w3.org/2000/svg" xmlns:xlink="http://www.w3.org/1999/xlink" x="0px" y="0px"
	 viewBox="0 0 16 16" style="enable-background:new 0 0 16 16;" xml:space="preserve">
<style type="text/css">
	.st0{fill:none;}
	.st1{fill:#4A4A4A;}
</style>
<g id="padding">
	<rect id="Rectangle-path_2_" class="st0" width="16" height="16"/>
</g>
<g id="icon">
	<path id="Shape" class="st1" d="M15.6,3.2c-0.5,0.2-1,0.2-1.5,0c0.6-0.4,0.7-0.6,0.9-1.3c-0.6,0.3-1.2,0.6-1.9,0.7
		c-0.6-0.6-1.3-1-2.2-1c-1.7,0-3,1.4-3,3c0,0.2,0,0.5,0.1,0.7c-2.6,0-4.8-1.2-6.3-3.1c-0.3,0.4-0.4,1-0.4,1.5c0,1.1,0.5,2,1.3,2.5
		c-0.5,0-1-0.2-1.4-0.4l0,0c0,1.5,1,2.7,2.4,3C3.2,9,2.8,9,2.3,8.9C2.7,10.1,3.8,11,5.1,11c-1.3,1-2.9,1.4-4.5,1.3
		c1.3,0.9,2.9,1.4,4.6,1.4c5.6,0,8.6-4.6,8.6-8.6c0-0.1,0-0.3,0-0.4C14.5,4.2,15.2,3.8,15.6,3.2z"/>
</g>
</svg>
