<?xml version="1.0" encoding="utf-8"?>
<!-- Generator: Adobe Illustrator 23.0.1, SVG Export Plug-In . SVG Version: 6.00 Build 0)  -->
<svg version="1.1" id="Ebene_1" xmlns="http://www.w3.org/2000/svg" xmlns:xlink="http://www.w3.org/1999/xlink" x="0px" y="0px"
	 viewBox="0 0 16 16" style="enable-background:new 0 0 16 16;" xml:space="preserve">
<style type="text/css">
	.st0{fill:#4A4A4A;}
</style>
<path id="Shape" class="st0" d="M15.5,3.6c-0.5,0.2-1,0.2-1.5,0c0.6-0.4,0.7-0.6,0.9-1.3C14.3,2.6,13.7,2.9,13,3
	c-0.6-0.6-1.3-1-2.2-1c-1.7,0-3,1.4-3,3c0,0.2,0,0.5,0.1,0.7C5.3,5.6,3,4.4,1.6,2.6C1.3,3,1.1,3.5,1.1,4.1c0,1.1,0.5,2,1.3,2.5
	C2,6.6,1.5,6.5,1.1,6.2l0,0c0,1.5,1,2.7,2.4,3C3.1,9.4,2.6,9.4,2.2,9.3c0.4,1.2,1.5,2.1,2.8,2.1c-1.3,1-2.9,1.4-4.5,1.3
	c1.4,0.8,3,1.3,4.7,1.3c5.6,0,8.6-4.6,8.6-8.6c0-0.1,0-0.3,0-0.4C14.4,4.6,15.1,4.2,15.5,3.6z"/>
</svg>
