<?xml version="1.0" encoding="utf-8"?>
<!-- Generator: Adobe Illustrator 22.1.0, SVG Export Plug-In . SVG Version: 6.00 Build 0)  -->
<svg version="1.1" id="logo" xmlns="http://www.w3.org/2000/svg" xmlns:xlink="http://www.w3.org/1999/xlink" x="0px" y="0px"
	 viewBox="0 0 631.7 90.7" style="enable-background:new 0 0 631.7 90.7;" xml:space="preserve">
<style type="text/css">
	.st0{fill:#4A4A4A;}
	.st1{fill:url(#SVGID_1_);}
</style>
<g>
	<path class="st0" d="M184.2,1.2h-51.3c-1.3,0-2.4,1.1-2.4,2.4V87l0,0c0,1.3,1.1,2.4,2.4,2.4h51.3c1.3,0,2.4-1.1,2.4-2.4V76.7
		c0-1.3-1.1-2.4-2.4-2.4h-37.3v-22H178l0,0c1.3,0,2.4-1.1,2.3-2.4V39.4c0-1.3-1.1-2.4-2.4-2.4h-31.1V16.4h37.3
		c1.3,0,2.4-1.1,2.4-2.4V3.6C186.6,2.3,185.6,1.2,184.2,1.2z"/>
	<path class="st0" d="M296.8,1.2h-11.6c-1.3,0-2.4,1.1-2.4,2.4v52.1h-0.1L230.4,0h-3.2c-1.3,0-2.4,1-2.4,2.3l0.1,84.7
		c0,1.3,1,2.4,2.4,2.4h11.5c1.3,0,2.4-1.1,2.4-2.4V32.9h0.1l52.6,57.8h3.1c1.3,0,2.3-1,2.4-2.3V3.6C299.2,2.3,298.2,1.3,296.8,1.2z"
		/>
	<path class="st0" d="M438,1.3h-11.6c-1,0-2,0.7-2.3,1.7l-12.8,50.2h-0.5L390.6,1.4c-0.3-0.9-1.2-1.5-2.2-1.4h-2.3
		c-1-0.1-1.9,0.5-2.2,1.4l-20,51.9h-0.6L350.3,3c-0.3-1-1.2-1.7-2.3-1.7h-11.6c-0.4,0-0.7,0-1.1,0.1c-1.1,0.5-1.7,1.7-1.2,2.9
		L358,88.9c0.3,1,1.2,1.8,2.3,1.8h2c0.9,0.1,1.8-0.5,2.2-1.4l22.3-57h0.6l22.6,57c0.4,0.9,1.2,1.4,2.1,1.4h2c1.1-0.1,2-0.8,2.3-1.8
		l23.9-84.6c0.1-0.3,0.2-0.7,0.2-1.1C440.3,2,439.2,1.2,438,1.3z"/>
	<path class="st0" d="M505,1.4c-0.3-0.9-1.2-1.4-2.1-1.4h-1.3c-0.9,0-1.8,0.5-2.2,1.4l-39.2,84.8c-0.7,1.6,0.3,3.3,2.3,3.2h11
		c1.6,0,3.1-1,3.6-2.5l6.2-13.6H521l6.1,13.6c0.9,1.8,1.7,2.5,3.6,2.5h11c0.4,0,0.9-0.1,1.2-0.3c1.1-0.6,1.5-1.9,0.9-3L505,1.4z
		 M489.4,59.3l12.4-27.7h0.4l12.6,27.7H489.4z"/>
	<path class="st0" d="M629.2,1.2h-13c-0.8,0.1-1.5,0.5-2,1.2l-20.2,29l-20.2-29c-0.4-0.7-1.2-1.1-2-1.2H559c-0.5,0-1,0.2-1.4,0.4
		c-1.1,0.7-1.3,2.2-0.6,3.3L585.8,47l-0.1,40l0,0c0,1.3,1.1,2.4,2.4,2.4h11.6c1.3-0.1,2.4-1.1,2.4-2.4V46.8l29.1-42
		c0.3-0.4,0.4-0.9,0.4-1.4C631.6,2.2,630.5,1.2,629.2,1.2z"/>
</g>
<linearGradient id="SVGID_1_" gradientUnits="userSpaceOnUse" x1="0" y1="980.2" x2="84.9101" y2="980.2" gradientTransform="matrix(1 0 0 -1 0 1025.45)">
	<stop  offset="0" style="stop-color:#00E1E1"/>
	<stop  offset="1" style="stop-color:#3CF596"/>
</linearGradient>
<path class="st1" d="M0,15.4V1.8c0-0.4,0.3-0.7,0.7-0.7l0,0h84.2v15H0.7C0.3,16.1,0,15.8,0,15.4L0,15.4L0,15.4 M25.1,89.4h59.8v-15
	H25.1c-0.4,0-0.7,0.3-0.7,0.7l0,0l0,0v13.6C24.4,89.1,24.7,89.4,25.1,89.4L25.1,89.4 M41.1,52H85V37H41.1c-0.4,0-0.7,0.3-0.7,0.7
	l0,0v13.6C40.3,51.7,40.7,52,41.1,52L41.1,52L41.1,52"/>
</svg>
