<?xml version="1.0" encoding="utf-8"?>
<!-- Generator: Adobe Illustrator 15.1.0, SVG Export Plug-In . SVG Version: 6.00 Build 0)  -->
<!DOCTYPE svg PUBLIC "-//W3C//DTD SVG 1.1//EN" "http://www.w3.org/Graphics/SVG/1.1/DTD/svg11.dtd">
<svg version="1.1" id="Ebene_1" xmlns="http://www.w3.org/2000/svg" xmlns:xlink="http://www.w3.org/1999/xlink" x="0px" y="0px"
	 width="415px" height="415px" viewBox="-144 -174 415 415" enable-background="new -144 -174 415 415" xml:space="preserve">
<linearGradient id="SVGID_1_" gradientUnits="userSpaceOnUse" x1="290.6455" y1="218.4961" x2="921.6739" y2="218.4961" gradientTransform="matrix(0.6332 0 0 -0.6332 -320.5367 171.853)">
	<stop  offset="0" style="stop-color:#00E1E1"/>
	<stop  offset="1" style="stop-color:#3CF596"/>
</linearGradient>
<path fill="url(#SVGID_1_)" d="M-136.5-106.798v-63.908c0-1.883,1.42-3.294,3.298-3.294l0,0h396.223v70.496h-396.223
	C-135.08-103.504-136.5-104.904-136.5-106.798L-136.5-106.798L-136.5-106.798 M-18.382,241h281.402v-70.511H-18.382
	c-1.889,0-3.298,1.423-3.298,3.301l0,0l0,0v63.908C-21.672,239.601-20.271,241-18.382,241L-18.382,241 M56.904,65.226H263.5V-5.27
	H56.904c-1.869,0-3.29,1.407-3.29,3.286l0,0v63.916C53.146,63.826,55.035,65.226,56.904,65.226L56.904,65.226L56.904,65.226"/>
</svg>
